<svg xmlns="http://www.w3.org/2000/svg" width="169" height="52" viewBox="0 0 169 52" fill="none"><g clip-path="url(#clip0_11005_30)"><path d="M19.5266 24.0681C19.4241 24.1607 19.2029 24.2054 18.86 24.2054H15.2739C14.9759 24.2054 14.774 24.1543 14.6586 24.0521C14.5432 23.9499 14.4887 23.7647 14.4887 23.4901V13.958H5.23017V23.4901C5.23017 23.7838 5.1789 23.9786 5.07635 24.0681C4.97379 24.1607 4.75266 24.2054 4.40975 24.2054H0.785167C0.512762 24.2054 0.310862 24.1543 0.189081 24.0521C0.0640953 23.9499 0 23.7647 0 23.4901V1.08893C0 0.817498 0.0640953 0.629092 0.189081 0.526906C0.314067 0.42472 0.512762 0.373627 0.785167 0.373627H4.40655C4.74946 0.373627 4.97059 0.418333 5.07314 0.507746C5.17569 0.600352 5.22697 0.791951 5.22697 1.08574V9.564H14.4855V1.08893C14.4855 0.817498 14.5432 0.629092 14.6554 0.526906C14.7708 0.42472 14.9727 0.373627 15.2707 0.373627H18.8568C19.1997 0.373627 19.4209 0.418333 19.5234 0.507746C19.626 0.600352 19.6772 0.791951 19.6772 1.08574V23.4869C19.6772 23.7807 19.626 23.9754 19.5234 24.0649" fill="white"></path><path d="M39.05 24.017C38.9603 24.1415 38.7776 24.2054 38.502 24.2054H28.391C27.1155 24.2054 26.0739 24.0233 25.2663 23.6593C24.4555 23.2985 23.8146 22.8195 23.3371 22.2287C22.8596 21.6379 22.5295 20.9705 22.3468 20.2201C22.1641 19.4697 22.0744 18.7129 22.0744 17.9401V6.63891C22.0744 5.82142 22.1898 5.03906 22.4173 4.29183C22.6448 3.5414 23.0038 2.87399 23.4941 2.28323C23.9844 1.69246 24.6286 1.22305 25.4234 0.868588C26.2214 0.517323 27.1988 0.34169 28.3621 0.34169H38.1687C38.4411 0.34169 38.6174 0.39917 38.6975 0.510936C38.7776 0.625895 38.8161 0.839848 38.8161 1.15918V4.05233C38.8161 4.34611 38.768 4.54729 38.6783 4.64948C38.5885 4.75166 38.4155 4.80276 38.1655 4.80276H29.487C28.5993 4.80276 28.0064 5.00713 27.7116 5.41587C27.4167 5.82462 27.2693 6.32597 27.2693 6.91354V9.53525H37.0759C37.3483 9.53525 37.5246 9.59273 37.6047 9.7045C37.6848 9.81946 37.7233 10.0334 37.7233 10.3527V13.0096C37.7233 13.281 37.6816 13.4822 37.6047 13.6067C37.5246 13.7313 37.3483 13.7951 37.0759 13.7951H27.2693V17.675C27.2693 18.4702 27.4584 19.0098 27.8334 19.294C28.2083 19.5782 28.7595 19.7187 29.4902 19.7187H38.5084C38.8033 19.7187 38.9923 19.7698 39.0725 19.872C39.1526 19.9742 39.191 20.1946 39.191 20.5362V23.4294C39.191 23.7008 39.143 23.902 39.0532 24.0265" fill="white"></path><path d="M45.4372 9.39475V23.4901C45.4372 23.7838 45.3859 23.9786 45.2833 24.0681C45.1808 24.1575 44.9693 24.2054 44.652 24.2054H41.0659C40.7935 24.2054 40.5916 24.1543 40.4698 24.0521C40.3448 23.9499 40.2807 23.7615 40.2807 23.4901V2.72391C40.2807 1.83936 40.4409 1.21986 40.7582 0.868592C41.0787 0.517327 41.6587 0.341694 42.5016 0.341694H43.9373C44.2802 0.341694 44.5687 0.357661 44.809 0.392787C45.0494 0.427914 45.2577 0.50136 45.4404 0.613126C45.623 0.728086 45.7929 0.884558 45.9531 1.08893C46.1134 1.2933 46.296 1.55516 46.5011 1.87129L52.3082 10.688L55.2469 15.2832H55.4168V1.0538C55.4168 0.782372 55.4681 0.593966 55.5706 0.49178C55.6732 0.389594 55.8847 0.338501 56.202 0.338501H59.7881C60.3105 0.338501 60.5733 0.578 60.5733 1.0538V21.8551C60.5733 22.58 60.4226 23.1548 60.1278 23.5731C59.833 23.9946 59.2401 24.2022 58.3524 24.2022H56.9166C56.5737 24.2022 56.2853 24.1862 56.0449 24.1511C55.8046 24.116 55.5963 24.0425 55.4136 23.9307C55.2309 23.8158 55.0611 23.6625 54.9008 23.4709C54.7406 23.2793 54.5579 23.0238 54.3528 22.7045L48.8855 14.4657L45.607 9.39156H45.4372V9.39475Z" fill="white"></path><path d="M78.0296 13.0383C78.802 13.38 79.35 13.8622 79.6705 14.4849C79.9877 15.1108 80.2505 15.8197 80.4556 16.6116L82.199 23.4198C82.2439 23.5571 82.2375 23.72 82.183 23.9148C82.1253 24.1096 81.9619 24.2054 81.6862 24.2054H78.1001C77.8501 24.2054 77.5874 24.1766 77.3149 24.1191C77.0425 24.0617 76.8471 23.8637 76.7349 23.522L75.2319 17.4962C74.9338 16.3849 74.498 15.6121 73.9147 15.181C73.3346 14.7499 72.5302 14.5328 71.5047 14.5328H68.191V23.4869C68.191 23.8062 68.1429 24.0042 68.0532 24.084C67.9602 24.1638 67.7455 24.2022 67.4026 24.2022H63.746C63.4736 24.2022 63.2717 24.1511 63.1499 24.0489C63.0249 23.9467 62.9608 23.7583 62.9608 23.4869V2.41735C62.9608 1.73717 63.0986 1.21985 63.371 0.868588C63.6434 0.517323 64.1914 0.34169 65.0119 0.34169H73.3827C75.8664 0.34169 77.7828 0.964387 79.1385 2.21297C80.4941 3.46156 81.1703 5.14125 81.1703 7.25203C81.1703 8.41121 80.8979 9.50013 80.3499 10.522C79.8018 11.5439 79.0167 12.3262 77.9912 12.8723L78.0232 13.0415L78.0296 13.0383ZM75.844 7.59052C75.844 7.29674 75.7959 6.99018 75.7062 6.67085C75.6164 6.35152 75.4626 6.06412 75.2447 5.80226C75.0267 5.54361 74.7255 5.32646 74.3377 5.15402C73.9499 4.98478 73.4596 4.89856 72.8667 4.89856H68.2198V10.3464H72.7642C73.7673 10.3464 74.53 10.0909 75.0524 9.57996C75.5748 9.06903 75.8376 8.40482 75.8376 7.58733" fill="white"></path><path d="M88.6053 24.0681C88.5027 24.1607 88.2816 24.2054 87.9387 24.2054H84.3173C84.0449 24.2054 83.843 24.1543 83.718 24.0521C83.593 23.9499 83.5289 23.7647 83.5289 23.4901V1.08893C83.5289 0.817498 83.593 0.629092 83.718 0.526906C83.843 0.42472 84.0417 0.373627 84.3173 0.373627H87.9387C88.2816 0.373627 88.5027 0.418333 88.6053 0.507746C88.7078 0.600352 88.7591 0.791951 88.7591 1.08574V23.4869C88.7591 23.7807 88.7078 23.9754 88.6053 24.0649" fill="white"></path><path d="M112.093 12.2208C112.093 14.172 111.882 15.9091 111.462 17.4291C111.039 18.9492 110.385 20.2456 109.497 21.309C108.609 22.3756 107.494 23.1867 106.148 23.7423C104.802 24.298 103.209 24.5758 101.363 24.5758C97.835 24.5758 95.2071 23.5092 93.4894 21.3761C91.7684 19.2429 90.9095 16.2253 90.9095 12.3198C90.9095 10.4134 91.1531 8.69541 91.6434 7.16262C92.1338 5.62983 92.8324 4.33653 93.7458 3.28274C94.6559 2.22894 95.7615 1.41464 97.0595 0.849427C98.3574 0.281016 99.8252 -0.00318909 101.466 -0.00318909C103.241 -0.00318909 104.796 0.281016 106.129 0.849427C107.462 1.41784 108.565 2.22894 109.443 3.28274C110.321 4.33653 110.981 5.62024 111.423 7.13068C111.869 8.64112 112.09 10.3368 112.09 12.2208M106.661 12.323C106.661 11.3012 106.587 10.3272 106.44 9.39475C106.292 8.46549 106.023 7.648 105.635 6.94228C105.248 6.23975 104.725 5.67772 104.065 5.25621C103.405 4.83788 102.549 4.62712 101.501 4.62712C100.636 4.62712 99.8797 4.82511 99.2291 5.22427C98.5785 5.62024 98.0369 6.15992 97.6043 6.84009C97.1716 7.52346 96.8512 8.31541 96.6493 9.2255C96.4442 10.1324 96.3416 11.0968 96.3416 12.1186C96.3416 13.3225 96.4281 14.3987 96.598 15.3535C96.7679 16.3051 97.0531 17.1226 97.4505 17.8059C97.8478 18.4861 98.3798 19.0098 99.04 19.3707C99.7002 19.7347 100.53 19.9167 101.533 19.9167C102.536 19.9167 103.331 19.706 103.995 19.2876C104.655 18.8693 105.177 18.3137 105.565 17.6207C105.953 16.9278 106.232 16.1231 106.405 15.2034C106.574 14.2837 106.661 13.3257 106.661 12.3262M100.764 24.3906C100.514 24.3906 100.354 24.3395 100.287 24.2373C100.219 24.1351 100.184 23.9691 100.184 23.7423V21.1206C100.184 20.8715 100.216 20.6991 100.287 20.6097C100.354 20.5203 100.514 20.4756 100.764 20.4756H104.626C106.655 20.4756 108.424 20.6895 109.939 21.1238C111.452 21.5549 112.609 22.0658 113.407 22.6566C113.59 22.7939 113.702 22.9185 113.75 23.0302C113.795 23.142 113.76 23.3017 113.647 23.506L112.385 25.8212C112.269 26.0479 112.138 26.1788 111.99 26.214C111.843 26.2459 111.619 26.1852 111.324 26.0256C110.436 25.5721 109.366 25.1857 108.113 24.8696C106.86 24.5502 105.379 24.3938 103.671 24.3938H100.767L100.764 24.3906Z" fill="white"></path><path d="M133.171 20.9035C133.171 21.6986 132.994 22.3788 132.642 22.9472C132.286 23.5156 131.632 23.9244 130.677 24.1734C130.222 24.2884 129.722 24.3714 129.174 24.4289C128.626 24.4864 128.082 24.5247 127.537 24.5471C126.989 24.5694 126.476 24.5854 125.998 24.5981C125.521 24.6077 125.133 24.6141 124.838 24.6141C122.877 24.6141 121.201 24.4481 119.797 24.1191C118.394 23.7902 117.253 23.2282 116.365 22.4363C115.477 21.6411 114.827 20.5873 114.416 19.2685C114.006 17.9528 113.801 16.2955 113.801 14.2997L113.766 1.09212C113.766 0.820691 113.833 0.632286 113.971 0.530099C114.109 0.427913 114.301 0.37682 114.551 0.37682H118.208C118.551 0.37682 118.772 0.421527 118.874 0.510939C118.977 0.603546 119.028 0.795145 119.028 1.08893V14.6031C119.028 15.5323 119.108 16.3434 119.265 17.0364C119.425 17.7293 119.711 18.3009 120.121 18.7576C120.531 19.211 121.082 19.5463 121.778 19.7603C122.473 19.9774 123.367 20.0828 124.46 20.0828C124.62 20.0828 124.835 20.0764 125.111 20.0668C125.383 20.0572 125.684 20.0445 126.014 20.0317C126.345 20.0221 126.684 19.9998 127.04 19.9646C127.393 19.9295 127.716 19.8784 128.014 19.8114V1.08893C128.014 0.817498 128.078 0.629092 128.2 0.526906C128.325 0.42472 128.524 0.373627 128.799 0.373627H132.421C132.764 0.373627 132.972 0.418333 133.055 0.507746C133.135 0.600352 133.174 0.791951 133.174 1.08574V20.8971L133.171 20.9035Z" fill="white"></path><path d="M152.544 24.017C152.454 24.1415 152.271 24.2054 151.996 24.2054H141.884C140.609 24.2054 139.567 24.0233 138.757 23.6593C137.949 23.2985 137.305 22.8195 136.827 22.2287C136.35 21.6379 136.02 20.9705 135.837 20.2201C135.654 19.4697 135.565 18.7129 135.565 17.9401V6.63891C135.565 5.82142 135.68 5.03906 135.908 4.29183C136.135 3.5414 136.494 2.87399 136.984 2.28323C137.475 1.69246 138.116 1.22305 138.914 0.868588C139.708 0.517323 140.689 0.34169 141.852 0.34169H151.659C151.931 0.34169 152.108 0.39917 152.188 0.510936C152.268 0.625895 152.31 0.839848 152.31 1.15918V4.05233C152.31 4.34611 152.262 4.54729 152.172 4.64948C152.082 4.75166 151.909 4.80276 151.659 4.80276H142.981C142.093 4.80276 141.5 5.00713 141.205 5.41587C140.907 5.82462 140.76 6.32597 140.76 6.91354V9.53525H150.566C150.839 9.53525 151.015 9.59273 151.095 9.7045C151.175 9.81946 151.217 10.0334 151.217 10.3527V13.0096C151.217 13.281 151.175 13.4822 151.095 13.6067C151.015 13.7313 150.839 13.7951 150.566 13.7951H140.76V17.675C140.76 18.4702 140.949 19.0098 141.324 19.294C141.699 19.5782 142.25 19.7187 142.981 19.7187H151.999C152.297 19.7187 152.483 19.7698 152.563 19.872C152.643 19.9742 152.681 20.1946 152.681 20.5362V23.4294C152.681 23.7008 152.636 23.902 152.547 24.0265" fill="white"></path><path d="M47.1068 50.9334C46.6293 50.9334 46.0653 50.9047 45.4179 50.8472C44.7673 50.7897 44.0975 50.6939 43.4021 50.5566C42.7067 50.4193 42.024 50.2405 41.3543 50.0106C40.6813 49.7838 40.0723 49.5124 39.5275 49.1931C39.3449 49.0781 39.2359 48.9759 39.2007 48.8865C39.1654 48.7971 39.2167 48.5895 39.3545 48.2734L40.5851 45.4824C40.6973 45.2334 40.8062 45.1024 40.9088 45.0929C41.0113 45.0801 41.1748 45.1216 41.4023 45.211C42.1779 45.5303 43.0207 45.789 43.9309 45.9934C44.841 46.1977 45.7512 46.2999 46.6645 46.2999C47.6196 46.2999 48.3951 46.1626 48.988 45.8912C49.5809 45.6198 50.0488 45.227 50.3885 44.716C50.7282 44.2051 50.9589 43.592 51.0711 42.8767C51.1833 42.1614 51.2409 41.3726 51.2409 40.5104V27.4051C51.2409 27.0889 51.3082 26.8941 51.4461 26.8271C51.5839 26.76 51.7761 26.7249 52.0261 26.7249H55.6475C55.9423 26.7249 56.1474 26.7568 56.2628 26.8271C56.3782 26.8941 56.4327 27.0889 56.4327 27.4051V41.3631C56.4327 42.8384 56.2692 44.1604 55.9391 45.3292C55.609 46.4979 55.0803 47.5038 54.3496 48.3405C53.6221 49.1803 52.6639 49.8222 51.4781 50.2628C50.2955 50.7067 48.8374 50.927 47.1068 50.927" fill="white"></path><path d="M78.2635 47.2579C78.2635 48.0531 78.0873 48.7332 77.7348 49.3016C77.3822 49.8701 76.7253 50.2788 75.7702 50.5279C75.3152 50.6428 74.8152 50.7259 74.2672 50.7833C73.7224 50.8408 73.1744 50.8791 72.6264 50.9015C72.0783 50.9239 71.5656 50.9398 71.0913 50.9526C70.6138 50.9622 70.2228 50.9686 69.928 50.9686C67.9666 50.9686 66.2905 50.8025 64.8869 50.4736C63.4864 50.1447 62.3423 49.5827 61.4546 48.7907C60.5668 47.9956 59.9163 46.9418 59.5061 45.6229C59.0959 44.3073 58.8907 42.65 58.8907 40.6541L58.8587 27.4466C58.8587 27.1751 58.926 26.9867 59.0638 26.8845C59.2016 26.7824 59.3939 26.7313 59.6439 26.7313H63.3005C63.6434 26.7313 63.8645 26.776 63.9671 26.8654C64.0696 26.958 64.1209 27.1496 64.1209 27.4434V40.9575C64.1209 41.8868 64.201 42.6979 64.3613 43.3908C64.5215 44.0838 64.8035 44.6554 65.217 45.1088C65.6272 45.5623 66.1784 45.8976 66.8738 46.1115C67.5692 46.3287 68.4634 46.434 69.5562 46.434C69.7164 46.434 69.9344 46.4277 70.2068 46.4181C70.4792 46.4085 70.7804 46.3957 71.1137 46.383C71.4438 46.3734 71.7867 46.351 72.1392 46.3159C72.4918 46.2808 72.8154 46.2297 73.1135 46.1626V27.4402C73.1135 27.1688 73.1744 26.9803 73.3026 26.8782C73.4276 26.776 73.6263 26.7249 73.8987 26.7249H77.52C77.8597 26.7249 78.0713 26.7696 78.1514 26.859C78.2315 26.9516 78.27 27.1432 78.27 27.437V47.2483L78.2635 47.2579Z" fill="white"></path><path d="M83.8495 50.0138C83.0419 49.6529 82.3977 49.1739 81.9202 48.5832C81.4427 47.9924 81.1094 47.325 80.9299 46.5746C80.7472 45.8241 80.6543 45.0673 80.6543 44.2945V27.4083C80.6543 27.1368 80.7184 26.9484 80.8434 26.8462C80.9684 26.7441 81.1671 26.693 81.4395 26.693H85.0609C85.4038 26.693 85.6249 26.7377 85.7274 26.8303C85.83 26.9197 85.8813 27.1145 85.8813 27.4083V43.9177C85.8813 44.7799 86.0928 45.3579 86.5126 45.6549C86.9356 45.9519 87.4869 46.0988 88.1695 46.0988H96.848C97.0979 46.0988 97.271 46.1371 97.3607 46.2169C97.4505 46.2967 97.4953 46.4947 97.4953 46.8141V49.8445C97.4953 50.3203 97.2774 50.5598 96.848 50.5598H86.9741C85.6986 50.5598 84.6538 50.3778 83.8495 50.0138Z" fill="white"></path><path d="M103.187 50.4225C103.084 50.5151 102.863 50.5598 102.52 50.5598H98.899C98.6266 50.5598 98.4279 50.5087 98.2997 50.4066C98.1748 50.3044 98.1107 50.116 98.1107 49.8445V27.4434C98.1107 27.172 98.1715 26.9836 98.2997 26.8814C98.4247 26.7792 98.6234 26.7281 98.899 26.7281H102.52C102.863 26.7281 103.084 26.7728 103.187 26.8622C103.29 26.9548 103.341 27.1464 103.341 27.4402V49.8413C103.341 50.1351 103.29 50.3299 103.187 50.4193" fill="white"></path><path d="M118.682 45.5878H110.859L109.526 49.9116C109.459 50.1383 109.363 50.3044 109.234 50.4065C109.109 50.5087 108.888 50.5598 108.568 50.5598H104.571C104.318 50.5598 104.168 50.4928 104.11 50.3555C104.052 50.2181 104.049 50.0585 104.094 49.8796L111.199 28.5355C111.314 28.1491 111.446 27.8362 111.593 27.5999C111.74 27.3604 111.914 27.1752 112.106 27.0378C112.298 26.9005 112.529 26.8047 112.788 26.7472C113.051 26.6898 113.352 26.661 113.692 26.661H115.74C116.128 26.661 116.458 26.6802 116.73 26.7121C117.003 26.7472 117.243 26.8303 117.448 26.9676C117.653 27.1049 117.83 27.2965 117.98 27.5456C118.128 27.7947 118.272 28.1236 118.406 28.5323L125.511 49.8765C125.556 50.0138 125.556 50.1607 125.511 50.3203C125.466 50.48 125.316 50.5598 125.066 50.5598H121.002C120.749 50.5598 120.541 50.5311 120.371 50.4736C120.201 50.4161 120.079 50.2628 120.012 50.0138L118.679 45.5878H118.682ZM112.087 41.4014H117.448L116.15 37.0617L114.888 32.1759H114.682L113.385 37.0617L112.087 41.4014Z" fill="white"></path><path d="M130.975 35.7524V49.8477C130.975 50.1415 130.927 50.3363 130.825 50.4257C130.722 50.5151 130.511 50.563 130.19 50.563H126.604C126.332 50.563 126.13 50.5119 126.005 50.4097C125.88 50.3076 125.816 50.1191 125.816 49.8477V29.0816C125.816 28.197 125.976 27.5775 126.293 27.2262C126.611 26.875 127.191 26.6993 128.033 26.6993H129.469C129.812 26.6993 130.104 26.7153 130.341 26.7504C130.578 26.7856 130.793 26.859 130.972 26.9708C131.155 27.0857 131.325 27.2422 131.485 27.4466C131.645 27.651 131.828 27.9128 132.033 28.2289L137.84 37.0457L140.779 41.6409H140.949V27.4115C140.949 27.14 141 26.9516 141.103 26.8494C141.205 26.7472 141.417 26.6962 141.737 26.6962H145.323C145.846 26.6962 146.108 26.9356 146.108 27.4115V48.2127C146.108 48.9376 145.961 49.5124 145.666 49.9307C145.371 50.3523 144.778 50.5598 143.891 50.5598H142.455C142.115 50.5598 141.824 50.5439 141.583 50.5087C141.346 50.4736 141.135 50.4002 140.952 50.2884C140.769 50.1734 140.599 50.0202 140.439 49.8286C140.279 49.637 140.096 49.3815 139.891 49.0622L134.427 40.8234L131.145 35.7492H130.975V35.7524Z" fill="white"></path><path d="M169 38.5785C169 40.5296 168.788 42.2668 168.369 43.7868C167.946 45.3068 167.292 46.6033 166.404 47.6667C165.516 48.7333 164.398 49.5444 163.055 50.1C161.712 50.6556 160.116 50.9334 158.27 50.9334C154.739 50.9334 152.114 49.8669 150.396 47.7337C148.675 45.6006 147.817 42.5829 147.817 38.6775C147.817 36.7711 148.063 35.0531 148.55 33.5203C149.041 31.9875 149.743 30.6942 150.653 29.6404C151.566 28.5866 152.669 27.7723 153.966 27.2071C155.264 26.6387 156.735 26.3577 158.373 26.3577C160.148 26.3577 161.706 26.6419 163.036 27.2071C164.369 27.7755 165.472 28.5866 166.35 29.6404C167.228 30.6942 167.888 31.9779 168.33 33.4883C168.772 34.9988 168.997 36.6944 168.997 38.5785M163.568 38.6807C163.568 37.6588 163.494 36.6849 163.347 35.7524C163.199 34.8232 162.93 34.0057 162.542 33.2999C162.155 32.5974 161.629 32.0354 160.969 31.6139C160.309 31.1955 159.453 30.9848 158.408 30.9848C157.543 30.9848 156.787 31.1828 156.136 31.5819C155.489 31.9779 154.944 32.5176 154.514 33.2009C154.082 33.8811 153.761 34.6763 153.556 35.5832C153.351 36.4901 153.249 37.4544 153.249 38.4763C153.249 39.6802 153.335 40.7563 153.505 41.7111C153.675 42.6628 153.96 43.4802 154.357 44.1636C154.755 44.8438 155.287 45.3675 155.947 45.7283C156.607 46.0924 157.437 46.2744 158.44 46.2744C159.443 46.2744 160.238 46.0636 160.902 45.6453C161.562 45.227 162.084 44.6714 162.472 43.9784C162.86 43.2854 163.139 42.4807 163.312 41.5611C163.481 40.6414 163.568 39.6834 163.568 38.6839" fill="white"></path><path d="M34.4736 21.6315C33.0251 21.6347 31.6406 21.9668 30.3651 22.6119C28.2564 23.6944 26.67 24.943 25.6413 26.3161C24.5965 27.7148 24.0677 29.0816 24.071 30.378C24.071 31.154 24.2312 31.8629 24.5324 32.4888C24.8369 33.1115 25.2118 33.6065 25.6477 33.9609C25.8913 34.1589 26.2085 34.3633 26.6059 34.5805C24.087 35.5129 22.2506 36.5092 21.1386 37.5502C19.4625 39.1309 18.6164 41.1619 18.6261 43.592C18.6325 46.2616 19.6484 48.3628 21.6449 49.8349C23.587 51.2687 26.122 51.9936 29.1793 51.9936H29.2402C32.1534 51.984 34.887 51.2943 37.3643 49.9403C39.8416 48.5832 41.6459 47.0408 42.7355 45.3547C43.5976 44.0423 44.0366 42.7234 44.0302 41.4333C44.0302 40.3923 43.729 39.5301 43.1457 38.8755C42.9086 38.6072 42.6233 38.3677 42.2964 38.1602C43.1874 38.0324 43.8251 37.9239 44.2289 37.8344C45.482 37.547 46.4787 37.167 47.1901 36.7072C47.9272 36.2314 48.5073 35.5768 48.9111 34.7689C49.3085 33.9673 49.5104 33.1115 49.5072 32.2238C49.5072 31.3233 49.2796 30.5505 48.8406 29.931C48.3983 29.3051 47.7734 28.8548 46.9786 28.5962L46.5331 28.6792L45.7127 29.3562L45.8121 30.1354C46.453 30.4387 46.7158 30.6591 46.828 30.79C47.0427 31.0646 47.1517 31.3807 47.1549 31.7416C47.1549 32.2429 46.9882 32.7156 46.6357 33.185C46.2832 33.6512 45.7063 34.0248 44.9243 34.2867C44.0719 34.5741 42.5785 34.8647 40.4825 35.1521C39.1205 35.3405 38.1783 35.4842 37.6047 35.5959C36.5215 35.8035 35.6626 36.0079 35.0537 36.209C34.4287 36.4198 33.9512 36.637 33.5955 36.8765C33.2398 37.116 32.9289 37.4097 32.6661 37.7482L32.5732 37.9973L32.2559 42.1614L32.6629 42.6595L33.6083 42.7777L34.1211 42.4328L34.4672 41.0789C34.5473 40.817 34.6403 40.5775 34.7428 40.3827C34.8325 40.2167 34.9639 40.0538 35.1402 39.8973C35.3133 39.7472 35.5696 39.6067 35.9061 39.4822C36.2426 39.3577 36.6112 39.2938 37.0054 39.2938C37.986 39.2938 38.7295 39.5684 39.2904 40.14C39.8608 40.7148 40.1364 41.4716 40.1396 42.4616C40.1428 44.071 39.3192 45.591 37.688 46.9833C36.0375 48.3948 33.7493 49.1132 30.8939 49.1228H30.8458C29.4517 49.1228 28.2532 48.9376 27.2821 48.5704C26.5386 48.2926 25.8432 47.8806 25.2086 47.3441C24.5773 46.8141 24.0517 46.1562 23.6383 45.3866C23.2377 44.633 23.0294 43.7453 23.0262 42.749C23.023 41.6185 23.3274 40.4977 23.9331 39.4088C24.5292 38.3326 25.4234 37.4832 26.5867 36.8828C27.7628 36.2761 29.1922 35.9664 30.8362 35.96C31.2272 35.96 31.7624 35.9727 32.4802 35.9983L32.9321 35.7013L33.7461 33.6129L33.2879 32.9774C32.9802 32.9934 32.7494 32.9998 32.5892 32.9998C31.115 32.9998 29.9677 32.6325 29.1505 31.9045C28.3333 31.1764 27.9359 30.2695 27.9327 29.1327C27.9327 28.3216 28.1282 27.5711 28.5192 26.9037C28.9069 26.2427 29.4902 25.7094 30.2529 25.3262C31.0285 24.9302 31.8745 24.7291 32.7719 24.7259C33.4801 24.7259 34.1147 24.8217 34.6755 25.0101C35.1658 25.1761 35.6049 25.4252 35.9895 25.7509L36.0536 28.0661L36.5215 28.5195H37.4476L37.8995 28.1587C37.9956 27.7499 38.1815 26.8718 38.4475 25.5434C38.5693 24.86 38.7295 24.1064 38.9314 23.2889L38.7424 22.7939C38.1655 22.3979 37.5085 22.1042 36.7971 21.9158C36.108 21.7337 35.3389 21.6411 34.5057 21.6411H34.4672L34.4736 21.6315Z" fill="white"></path><mask id="mask0_11005_30" style="mask-type:luminance" maskUnits="userSpaceOnUse" x="18" y="21" width="32" height="31"><path d="M34.4736 21.6315C33.0251 21.6347 31.6406 21.9668 30.3651 22.6119C28.2564 23.6944 26.67 24.943 25.6413 26.3161C24.5965 27.7148 24.0677 29.0816 24.071 30.378C24.071 31.154 24.2312 31.8629 24.5324 32.4888C24.8369 33.1115 25.2118 33.6065 25.6477 33.9609C25.8913 34.1589 26.2085 34.3633 26.6059 34.5805C24.087 35.5129 22.2506 36.5092 21.1386 37.5502C19.4625 39.1309 18.6164 41.1619 18.6261 43.592C18.6325 46.2616 19.6484 48.3628 21.6449 49.8349C23.587 51.2687 26.122 51.9936 29.1793 51.9936H29.2402C32.1534 51.984 34.887 51.2943 37.3643 49.9403C39.8416 48.5832 41.6459 47.0408 42.7355 45.3547C43.5976 44.0423 44.0366 42.7234 44.0302 41.4333C44.0302 40.3923 43.729 39.5301 43.1457 38.8755C42.9086 38.6072 42.6233 38.3677 42.2964 38.1602C43.1874 38.0324 43.8251 37.9239 44.2289 37.8344C45.482 37.547 46.4787 37.167 47.1901 36.7072C47.9272 36.2314 48.5073 35.5768 48.9111 34.7689C49.3085 33.9673 49.5104 33.1115 49.5072 32.2238C49.5072 31.3233 49.2796 30.5505 48.8406 29.931C48.3983 29.3051 47.7734 28.8548 46.9786 28.5962L46.5331 28.6792L45.7127 29.3562L45.8121 30.1354C46.453 30.4387 46.7158 30.6591 46.828 30.79C47.0427 31.0646 47.1517 31.3807 47.1549 31.7416C47.1549 32.2429 46.9882 32.7156 46.6357 33.185C46.2832 33.6512 45.7063 34.0248 44.9243 34.2867C44.0719 34.5741 42.5785 34.8647 40.4825 35.1521C39.1205 35.3405 38.1783 35.4842 37.6047 35.5959C36.5215 35.8035 35.6626 36.0079 35.0537 36.209C34.4287 36.4198 33.9512 36.637 33.5955 36.8765C33.2398 37.116 32.9289 37.4097 32.6661 37.7482L32.5732 37.9973L32.2559 42.1614L32.6629 42.6595L33.6083 42.7777L34.1211 42.4328L34.4672 41.0789C34.5473 40.817 34.6403 40.5775 34.7428 40.3827C34.8325 40.2167 34.9639 40.0538 35.1402 39.8973C35.3133 39.7472 35.5696 39.6067 35.9061 39.4822C36.2426 39.3577 36.6112 39.2938 37.0054 39.2938C37.986 39.2938 38.7295 39.5684 39.2904 40.14C39.8608 40.7148 40.1364 41.4716 40.1396 42.4616C40.1428 44.071 39.3192 45.591 37.688 46.9833C36.0375 48.3948 33.7493 49.1132 30.8939 49.1228H30.8458C29.4517 49.1228 28.2532 48.9376 27.2821 48.5704C26.5386 48.2926 25.8432 47.8806 25.2086 47.3441C24.5773 46.8141 24.0517 46.1562 23.6383 45.3866C23.2377 44.633 23.0294 43.7453 23.0262 42.749C23.023 41.6185 23.3274 40.4977 23.9331 39.4088C24.5292 38.3326 25.4234 37.4832 26.5867 36.8828C27.7628 36.2761 29.1922 35.9664 30.8362 35.96C31.2272 35.96 31.7624 35.9727 32.4802 35.9983L32.9321 35.7013L33.7461 33.6129L33.2879 32.9774C32.9802 32.9934 32.7494 32.9998 32.5892 32.9998C31.115 32.9998 29.9677 32.6325 29.1505 31.9045C28.3333 31.1764 27.9359 30.2695 27.9327 29.1327C27.9327 28.3216 28.1282 27.5711 28.5192 26.9037C28.9069 26.2427 29.4902 25.7094 30.2529 25.3262C31.0285 24.9302 31.8745 24.7291 32.7719 24.7259C33.4801 24.7259 34.1147 24.8217 34.6755 25.0101C35.1658 25.1761 35.6049 25.4252 35.9895 25.7509L36.0536 28.0661L36.5215 28.5195H37.4476L37.8995 28.1587C37.9956 27.7499 38.1815 26.8718 38.4475 25.5434C38.5693 24.86 38.7295 24.1064 38.9314 23.2889L38.7424 22.7939C38.1655 22.3979 37.5085 22.1042 36.7971 21.9158C36.108 21.7337 35.3389 21.6411 34.5057 21.6411H34.4672L34.4736 21.6315Z" fill="white"></path></mask><g mask="url(#mask0_11005_30)"><path d="M49.5134 21.6315H18.6194V52H49.5134V21.6315Z" fill="white"></path></g></g><defs><clipPath id="clip0_11005_30"><rect width="169" height="52" fill="white"></rect></clipPath></defs></svg>